<svg width="24" height="25" viewBox="0 0 24 25" fill="none" xmlns="http://www.w3.org/2000/svg">
<path d="M9.76057 15.3403C9.18557 14.7663 8.83557 13.9863 8.83557 13.1113C8.83557 11.3583 10.2476 9.94531 11.9996 9.94531C12.8666 9.94531 13.6646 10.2963 14.2296 10.8703" stroke="black" stroke-width="1.5" stroke-linecap="round" stroke-linejoin="round"/>
<path d="M15.1047 13.6724C14.8727 14.9624 13.8567 15.9804 12.5677 16.2144" stroke="black" stroke-width="1.5" stroke-linecap="round" stroke-linejoin="round"/>
<path d="M6.65457 18.4456C5.06757 17.1996 3.72357 15.3796 2.74957 13.1106C3.73357 10.8316 5.08657 9.00162 6.68357 7.74562C8.27057 6.48962 10.1016 5.80762 11.9996 5.80762C13.9086 5.80762 15.7386 6.49962 17.3356 7.76462" stroke="black" stroke-width="1.5" stroke-linecap="round" stroke-linejoin="round"/>
<path d="M19.4476 9.96436C20.1356 10.8784 20.7406 11.9334 21.2496 13.1104C19.2826 17.6674 15.8066 20.4124 11.9996 20.4124C11.1366 20.4124 10.2856 20.2724 9.46759 19.9994" stroke="black" stroke-width="1.5" stroke-linecap="round" stroke-linejoin="round"/>
<path d="M19.887 5.22314L4.11298 20.9971" stroke="black" stroke-width="1.5" stroke-linecap="round" stroke-linejoin="round"/>
</svg>
