<svg width="65" height="28" viewBox="0 0 65 28" fill="none" xmlns="http://www.w3.org/2000/svg">
<path d="M48.625 22.5787C48.8031 22.6025 48.9099 22.6264 49.0168 22.6264C51.546 22.6264 54.087 22.6383 56.6162 22.6145C58.1242 22.6025 58.991 21.8034 59.0385 20.3006C59.1097 17.7959 59.1097 15.2912 59.1097 12.7865C59.1097 12.3213 59.2403 12.0589 59.6678 11.8442C60.9621 11.2001 62.2207 10.5084 63.5031 9.84044C63.6575 9.75695 63.8237 9.68539 64.0374 9.58997C64.0493 9.75695 64.0731 9.87622 64.0731 10.0074C64.0731 13.4782 64.1324 16.949 64.0493 20.4198C63.99 23.02 62.9332 25.1549 60.594 26.5027C59.3947 27.1945 58.0648 27.445 56.7112 27.445C52.8996 27.4688 49.0999 27.4688 45.2883 27.445C44.3147 27.433 43.341 27.2303 42.3673 27.1945C41.7143 27.1706 41.0612 27.3257 40.3962 27.3615C39.292 27.4092 38.1758 27.445 37.0715 27.4569C33.9486 27.4688 30.8258 27.4927 27.7029 27.445C26.7767 27.433 25.8149 27.3018 24.9244 27.0394C22.229 26.2045 20.7803 24.2604 20.3173 21.5291C20.2223 20.9446 20.1985 20.3483 20.1985 19.7519C20.1866 14.6829 20.1985 9.61382 20.1866 4.54477C20.1866 4.11539 20.2935 3.87685 20.6854 3.68601C21.9915 3.03002 23.2739 2.33824 24.5682 1.67032C24.7225 1.58683 24.8888 1.51527 25.1381 1.396C25.1381 1.69418 25.1381 1.90886 25.1381 2.12355C25.1381 7.80089 25.1381 13.4902 25.1381 19.1675C25.1381 19.6088 25.1619 20.062 25.2212 20.5033C25.3993 21.8273 26.1237 22.5906 27.4417 22.6145C30.1252 22.6622 32.7969 22.6264 35.4804 22.6264C35.5279 22.6264 35.5873 22.5906 35.706 22.5548C35.5873 22.3163 35.4804 22.0897 35.3617 21.875C33.4618 18.5592 33.9961 14.0984 36.1928 11.4745C37.499 9.90008 39.197 9.04132 41.2156 8.86241C43.2698 8.6835 45.2409 8.96976 46.927 10.3056C48.7556 11.7488 49.6936 13.681 49.9905 15.971C50.2992 18.2491 49.8836 20.3602 48.7081 22.3282C48.6962 22.364 48.6843 22.4355 48.625 22.5787ZM45.3715 16.8417C45.2765 16.46 45.1934 15.7444 44.9084 15.1242C44.3266 13.8599 43.2579 13.347 41.8805 13.4186C40.6456 13.4902 39.755 14.1223 39.3276 15.2912C38.4489 17.6408 39.5057 20.6226 41.6311 21.9107C42.0111 22.1374 42.3198 22.1493 42.6879 21.8988C44.3741 20.7777 45.2884 19.2152 45.3715 16.8417Z" fill="#0A9A8F"/>
<path d="M7.37456 13.1921C8.182 11.7966 8.98943 10.425 9.80874 9.01758C11.4117 9.98368 12.8366 11.0929 13.9765 12.5242C16.1257 15.1959 16.8619 18.2731 16.5057 21.6485C16.4226 22.4714 16.2445 23.3063 15.9595 24.0816C15.247 26.0615 13.7272 27.2185 11.7086 27.3139C8.07513 27.4809 4.44168 27.4093 0.796347 27.4451C0.784473 27.4451 0.760725 27.4331 0.701355 27.3974C0.748851 27.2781 0.784473 27.135 0.843843 27.0157C1.52066 25.7037 2.22123 24.3917 2.88618 23.0678C3.05241 22.7458 3.2424 22.6265 3.61049 22.6265C5.43909 22.6503 7.26769 22.5788 9.0963 22.6503C11.2455 22.7338 11.6611 21.4457 11.6136 19.9071C11.5305 17.0923 10.1768 15.0289 7.8614 13.538C7.73078 13.4306 7.57642 13.3233 7.37456 13.1921Z" fill="#0A9A8F"/>
<path d="M61.6982 0.000488281C63.2894 0.000488281 64.2987 1.00237 64.2987 2.58869C64.2987 4.3062 63.42 5.22459 61.7457 5.24845C60.1546 5.2723 59.1335 4.24656 59.1216 2.61254C59.1216 1.02623 60.119 0.000488281 61.6982 0.000488281Z" fill="#0A9A8F"/>
<path d="M12.4092 2.61254C12.4092 4.37776 11.5424 5.2723 9.85625 5.24845C8.25326 5.22459 7.24397 4.175 7.25584 2.56483C7.27959 0.990444 8.30076 0.000488281 9.90375 0.000488281C11.4711 0.0124155 12.4092 0.990444 12.4092 2.61254Z" fill="#0A9A8F"/>
<path d="M44.6946 3.17292C44.6828 4.92622 43.8872 5.74919 42.1655 5.74919C40.515 5.74919 39.5651 4.78309 39.5651 3.11328C39.5651 1.47926 40.5506 0.537013 42.2248 0.54894C43.8041 0.560867 44.6946 1.52697 44.6946 3.17292Z" fill="#0A9A8F"/>
</svg>
